<svg xmlns="http://www.w3.org/2000/svg" viewBox="0 0 64 64">
    <defs>
        <style>.cls-1{fill:#272835;}</style>
    </defs>
    <title>23-Online</title>
    <g id="_23-Online">
        <path class="cls-1"
              d="M32,0A32,32,0,1,0,64,32,32,32,0,0,0,32,0ZM61.93,30H49a38.1,38.1,0,0,0-3.37-14H57.36A29.79,29.79,0,0,1,61.93,30ZM56,14H44.61A40.63,40.63,0,0,0,35.16,2.17,30,30,0,0,1,56,14ZM33,3a38.11,38.11,0,0,1,9.35,11H33Zm-4.16-.8A40.63,40.63,0,0,0,19.39,14H8A30,30,0,0,1,28.84,2.17ZM31,3V14H21.66A38.28,38.28,0,0,1,31,3ZM6.64,16H18.42A38.24,38.24,0,0,0,15,31H2A29.8,29.8,0,0,1,6.64,16ZM2,33H15a38.24,38.24,0,0,0,3.39,15H6.64A29.8,29.8,0,0,1,2,33ZM8,50H19.39a40.63,40.63,0,0,0,9.45,11.83A30,30,0,0,1,8,50ZM31,61a38.11,38.11,0,0,1-9.35-11H31ZM20.61,48A36.42,36.42,0,0,1,17,32a36.38,36.38,0,0,1,3.62-16H43.39A36.42,36.42,0,0,1,47,32a36.38,36.38,0,0,1-3.62,16ZM33,50h9.34A38.28,38.28,0,0,1,33,61Zm2.16,11.83A40.63,40.63,0,0,0,44.61,50H56A30,30,0,0,1,35.16,61.83ZM45.58,48A38.32,38.32,0,0,0,49,32H62a29.81,29.81,0,0,1-4.64,16Z"/>
        <rect class="cls-1" x="31" y="31" width="2" height="2"/>
        <rect class="cls-1" x="35" y="31" width="2" height="2"/>
        <rect class="cls-1" x="27" y="31" width="2" height="2"/>
        <path class="cls-1" d="M25,29V26H39v3h2V25a1,1,0,0,0-1-1H24a1,1,0,0,0-1,1v3H21v2h3A1,1,0,0,0,25,29Z"/>
        <path class="cls-1" d="M39,35v3H25V35H23v4a1,1,0,0,0,1,1H40a1,1,0,0,0,1-1V36h2V34H40A1,1,0,0,0,39,35Z"/>
    </g>
</svg>